<svg width="31" height="32" viewBox="0 0 31 32" fill="none" xmlns="http://www.w3.org/2000/svg">
<path d="M16.1947 31.1196C18.177 21.6813 20.6749 19.0406 29.6031 16.9451C29.8168 16.9451 30.0217 16.8553 30.1729 16.6956C30.324 16.5358 30.4089 16.3192 30.4089 16.0933C30.4089 15.8673 30.324 15.6507 30.1729 15.4909C30.0217 15.3312 29.8168 15.2414 29.6031 15.2414C20.6749 13.1459 18.177 10.5052 16.1947 1.06692C16.1947 0.841001 16.1098 0.624334 15.9587 0.464584C15.8076 0.304834 15.6026 0.215088 15.3889 0.215088C15.1752 0.215088 14.9703 0.304834 14.8191 0.464584C14.668 0.624334 14.5831 0.841001 14.5831 1.06692C12.6009 10.5052 10.1029 13.1459 1.17478 15.2414C0.96107 15.2414 0.756114 15.3312 0.604999 15.4909C0.453884 15.6507 0.368988 15.8673 0.368988 16.0933C0.368988 16.3192 0.453884 16.5358 0.604999 16.6956C0.756114 16.8553 0.96107 16.9451 1.17478 16.9451C10.1029 19.0406 12.6009 21.6813 14.5831 31.1196C14.5831 31.3455 14.668 31.5622 14.8191 31.7219C14.9703 31.8817 15.1752 31.9714 15.3889 31.9714C15.6026 31.9714 15.8076 31.8817 15.9587 31.7219C16.1098 31.5622 16.1947 31.3455 16.1947 31.1196Z" fill="#BCB3AA"/>
</svg>
