<svg width="486" height="211" viewBox="0 0 486 211" fill="none" xmlns="http://www.w3.org/2000/svg">
<path d="M346.935 19.3105C307.563 81.4076 332.183 181.861 406.48 204.641L346.935 19.3105Z" fill="#BCB3AA"/>
<path d="M346.935 20.5128C424.157 27.3726 463.378 117.839 445.61 185.937L346.935 20.5128Z" fill="#BCB3AA"/>
<path d="M346.084 19.3105L427.746 197.839L346.084 19.3105Z" fill="#BCB3AA"/>
<path d="M303.552 60.117C343.845 81.4045 394.342 53.3256 410.733 14.21L303.552 60.117Z" fill="#BCB3AA"/>
<path d="M292.493 103.474C351.686 122.451 423.498 92.8746 449.013 35.4631L292.493 103.474Z" fill="#BCB3AA"/>
<path d="M300.149 151.082C366.692 167.503 448.135 137.767 474.532 71.1689L300.149 151.082Z" fill="#BCB3AA"/>
<path d="M482.16 107.819C482.481 133.811 472.747 158.866 455.091 177.492C437.436 196.118 413.299 206.794 387.974 207.18C362.648 207.566 338.2 197.63 319.99 179.551C301.78 161.472 291.293 136.725 290.828 110.736C290.364 84.7459 299.96 59.6344 317.513 40.9066C335.066 22.1787 359.143 11.3627 384.466 10.8297C409.789 10.2968 434.291 20.0905 452.6 38.0636C470.91 56.0368 481.533 80.7228 482.14 106.709" fill="#BCB3AA"/>
<path d="M326.519 185.937C385.655 206.743 459.906 175.956 482.188 116.226L326.519 185.937Z" fill="#BCB3AA"/>
<path d="M481.11 123.493C482.005 117.371 482.333 111.176 482.09 104.991L481.11 123.493Z" fill="#BCB3AA"/>
<path d="M346.935 19.3105C307.563 81.4076 332.183 181.861 406.48 204.641M346.935 20.5128C424.157 27.3726 463.378 117.839 445.61 185.937M346.084 19.3105L427.746 197.839M303.552 60.117C343.845 81.4045 394.342 53.3256 410.733 14.21M292.493 103.474C351.686 122.451 423.498 92.8746 449.013 35.4631M300.149 151.082C366.692 167.503 448.135 137.767 474.532 71.1689M482.16 107.819C482.481 133.811 472.747 158.866 455.091 177.492C437.436 196.118 413.299 206.794 387.974 207.18C362.648 207.566 338.2 197.63 319.99 179.551C301.78 161.472 291.293 136.725 290.828 110.736C290.364 84.7459 299.96 59.6344 317.513 40.9066C335.066 22.1787 359.143 11.3627 384.466 10.8297C409.789 10.2968 434.291 20.0905 452.6 38.0636C470.91 56.0368 481.533 80.7228 482.14 106.709M326.519 185.937C385.655 206.743 459.906 175.956 482.188 116.226M481.11 123.493C482.005 117.371 482.333 111.176 482.09 104.991" stroke="#D9D9D9" stroke-width="7"/>
<path d="M202.935 15.3105C163.563 77.4076 188.183 177.861 262.48 200.641L202.935 15.3105Z" fill="#BCB3AA"/>
<path d="M202.935 16.5128C280.157 23.3726 319.378 113.839 301.61 181.937L202.935 16.5128Z" fill="#BCB3AA"/>
<path d="M202.084 15.3105L283.746 193.839L202.084 15.3105Z" fill="#BCB3AA"/>
<path d="M159.552 56.117C199.845 77.4045 250.342 49.3256 266.733 10.21L159.552 56.117Z" fill="#BCB3AA"/>
<path d="M148.493 99.474C207.686 118.451 279.498 88.8746 305.013 31.4631L148.493 99.474Z" fill="#BCB3AA"/>
<path d="M156.149 147.082C222.692 163.503 304.135 133.767 330.532 67.1689L156.149 147.082Z" fill="#BCB3AA"/>
<path d="M338.16 103.819C338.481 129.811 328.747 154.866 311.091 173.492C293.436 192.118 269.299 202.794 243.974 203.18C218.648 203.566 194.2 193.63 175.99 175.551C157.78 157.472 147.293 132.725 146.828 106.736C146.364 80.7459 155.96 55.6344 173.513 36.9066C191.066 18.1787 215.143 7.36267 240.466 6.82975C265.789 6.29682 290.291 16.0905 308.6 34.0636C326.91 52.0368 337.533 76.7228 338.14 102.709" fill="#BCB3AA"/>
<path d="M182.519 181.937C241.655 202.743 315.906 171.956 338.188 112.226L182.519 181.937Z" fill="#BCB3AA"/>
<path d="M337.11 119.493C338.005 113.371 338.333 107.176 338.09 100.991L337.11 119.493Z" fill="#BCB3AA"/>
<path d="M202.935 15.3105C163.563 77.4076 188.183 177.861 262.48 200.641M202.935 16.5128C280.157 23.3726 319.378 113.839 301.61 181.937M202.084 15.3105L283.746 193.839M159.552 56.117C199.845 77.4045 250.342 49.3256 266.733 10.21M148.493 99.474C207.686 118.451 279.498 88.8746 305.013 31.4631M156.149 147.082C222.692 163.503 304.135 133.767 330.532 67.1689M338.16 103.819C338.481 129.811 328.747 154.866 311.091 173.492C293.436 192.118 269.299 202.794 243.974 203.18C218.648 203.566 194.2 193.63 175.99 175.551C157.78 157.472 147.293 132.725 146.828 106.736C146.364 80.7459 155.96 55.6344 173.513 36.9066C191.066 18.1787 215.143 7.36267 240.466 6.82975C265.789 6.29683 290.291 16.0905 308.6 34.0636C326.91 52.0368 337.533 76.7228 338.14 102.709M182.519 181.937C241.655 202.743 315.906 171.956 338.188 112.226M337.11 119.493C338.005 113.371 338.333 107.176 338.09 100.991" stroke="#D9D9D9" stroke-width="7"/>
<path d="M59.9348 12.3105C20.5632 74.4076 45.1831 174.861 119.48 197.641L59.9348 12.3105Z" fill="#BCB3AA"/>
<path d="M59.9349 13.5128C137.157 20.3726 176.378 110.839 158.61 178.937L59.9349 13.5128Z" fill="#BCB3AA"/>
<path d="M59.0842 12.3105L140.746 190.839L59.0842 12.3105Z" fill="#BCB3AA"/>
<path d="M16.5518 53.117C56.8446 74.4045 107.342 46.3256 123.733 7.21005L16.5518 53.117Z" fill="#BCB3AA"/>
<path d="M5.49329 96.474C64.6862 115.451 136.498 85.8746 162.013 28.4631L5.49329 96.474Z" fill="#BCB3AA"/>
<path d="M13.1492 144.082C79.6923 160.503 161.135 130.767 187.532 64.1689L13.1492 144.082Z" fill="#BCB3AA"/>
<path d="M195.16 100.819C195.481 126.811 185.747 151.866 168.091 170.492C150.436 189.118 126.299 199.794 100.974 200.18C75.6483 200.566 51.2004 190.63 32.99 172.551C14.7795 154.472 4.29257 129.725 3.82823 103.736C3.36389 77.7459 12.9601 52.6344 30.5129 33.9066C48.0657 15.1787 72.1429 4.36267 97.4657 3.82975C122.789 3.29682 147.291 13.0905 165.6 31.0636C183.91 49.0368 194.533 73.7228 195.14 99.7094" fill="#BCB3AA"/>
<path d="M39.5193 178.937C98.655 199.743 172.906 168.956 195.188 109.226L39.5193 178.937Z" fill="#BCB3AA"/>
<path d="M194.11 116.493C195.005 110.371 195.333 104.176 195.09 97.9906L194.11 116.493Z" fill="#BCB3AA"/>
<path d="M59.9348 12.3105C20.5632 74.4076 45.1831 174.861 119.48 197.641M59.9349 13.5128C137.157 20.3726 176.378 110.839 158.61 178.937M59.0842 12.3105L140.746 190.839M16.5518 53.117C56.8446 74.4045 107.342 46.3256 123.733 7.21005M5.49329 96.474C64.6862 115.451 136.498 85.8746 162.013 28.4631M13.1492 144.082C79.6923 160.503 161.135 130.767 187.532 64.1689M195.16 100.819C195.481 126.811 185.747 151.866 168.091 170.492C150.436 189.118 126.299 199.794 100.974 200.18C75.6483 200.566 51.2004 190.63 32.99 172.551C14.7795 154.472 4.29257 129.725 3.82823 103.736C3.36389 77.7459 12.9601 52.6344 30.5129 33.9066C48.0657 15.1787 72.1429 4.36267 97.4657 3.82975C122.789 3.29683 147.291 13.0905 165.6 31.0636C183.91 49.0368 194.533 73.7228 195.14 99.7094M39.5193 178.937C98.655 199.743 172.906 168.956 195.188 109.226M194.11 116.493C195.005 110.371 195.333 104.176 195.09 97.9906" stroke="#D9D9D9" stroke-width="7"/>
</svg>
