<svg width="32" height="31" viewBox="0 0 32 31" fill="none" xmlns="http://www.w3.org/2000/svg">
<path d="M16.5836 29.953C18.6297 20.812 21.208 18.2545 30.4237 16.225C30.6442 16.225 30.8558 16.1381 31.0118 15.9833C31.1678 15.8286 31.2554 15.6188 31.2554 15.4C31.2554 15.1812 31.1678 14.9713 31.0118 14.8166C30.8558 14.6619 30.6442 14.575 30.4237 14.575C21.208 12.5455 18.6297 9.98797 16.5836 0.846973C16.5836 0.628169 16.496 0.418327 16.34 0.26361C16.184 0.108892 15.9724 0.0219727 15.7519 0.0219727C15.5313 0.0219727 15.3197 0.108892 15.1637 0.26361C15.0077 0.418327 14.9201 0.628169 14.9201 0.846973C12.8741 9.98797 10.2957 12.5455 1.08006 14.575C0.859466 14.575 0.647912 14.6619 0.491931 14.8166C0.335951 14.9713 0.248322 15.1812 0.248322 15.4C0.248322 15.6188 0.335951 15.8286 0.491931 15.9833C0.647912 16.1381 0.859466 16.225 1.08006 16.225C10.2957 18.2545 12.8741 20.812 14.9201 29.953C14.9201 30.1718 15.0077 30.3816 15.1637 30.5363C15.3197 30.6911 15.5313 30.778 15.7519 30.778C15.9724 30.778 16.184 30.6911 16.34 30.5363C16.496 30.3816 16.5836 30.1718 16.5836 29.953Z" fill="#BCB3AA"/>
</svg>
