<svg width="1361" height="854" viewBox="0 0 1361 854" fill="none" xmlns="http://www.w3.org/2000/svg">
<path d="M184.769 626.896C149.233 626.896 117.878 622.694 90.7039 614.29C63.8779 605.686 42.8003 593.581 27.4711 577.974C12.4904 562.166 5 543.558 5 522.148C5 501.338 12.4904 483.13 27.4711 467.523C42.4519 451.916 64.052 439.81 92.2716 431.206C120.84 422.402 155.33 418 195.743 418C214.208 418 231.279 419.201 246.957 421.602C262.983 424.003 278.138 427.504 292.421 432.106L294.512 474.126H289.286L260.021 442.911C255.492 437.909 251.311 434.308 247.479 432.106C243.647 429.905 238.769 428.205 232.847 427.004C227.273 426.004 222.047 425.303 217.169 424.903C212.64 424.303 206.543 424.003 198.879 424.003C177.279 424.003 158.117 427.304 141.395 433.907C125.02 440.51 112.304 451.015 103.246 465.422C94.1878 479.828 89.6587 498.737 89.6587 522.148C89.6587 545.359 93.8394 564.267 102.201 578.874C110.91 593.481 123.104 604.186 138.782 610.989C154.459 617.592 172.575 620.893 193.13 620.893C196.266 620.893 199.227 620.793 202.014 620.593C205.15 620.193 208.111 619.793 210.898 619.393C217.518 618.793 221.873 617.192 223.963 614.591C226.053 611.989 227.098 608.888 227.098 605.286V545.859C227.098 538.055 220.131 533.253 206.195 531.452L182.156 527.851V524.849H329.525V527.851L322.209 529.051C308.97 531.452 302.351 536.455 302.351 544.058V609.188C284.234 614.991 265.77 619.393 246.957 622.394C228.492 625.396 207.763 626.896 184.769 626.896Z" fill="white"/>
<path d="M343.888 621.494V618.492L354.34 616.091C361.307 614.691 365.836 612.79 367.927 610.389C370.365 607.988 371.585 604.886 371.585 601.084V444.112C371.585 440.11 370.365 436.909 367.927 434.508C365.836 432.106 361.307 430.206 354.34 428.805L343.888 426.404V423.402H476.624V426.404L467.74 428.505C461.121 429.905 456.592 431.806 454.153 434.207C451.714 436.408 450.495 439.51 450.495 443.512V516.445H575.393V443.512C575.393 439.51 574.173 436.408 571.735 434.207C569.644 431.806 565.115 429.905 558.147 428.505L548.741 426.404V423.402H682V426.404L671.548 428.805C664.929 430.206 660.4 432.106 657.961 434.508C655.522 436.909 654.303 440.11 654.303 444.112V601.084C654.303 604.886 655.522 607.988 657.961 610.389C660.4 612.79 664.929 614.691 671.548 616.091L682 618.492V621.494H548.741V618.492L558.147 616.692C565.115 615.091 569.644 613.19 571.735 610.989C574.173 608.588 575.393 605.386 575.393 601.385V522.448H450.495V601.385C450.495 608.788 456.244 613.89 467.74 616.692L476.624 618.492V621.494H343.888Z" fill="white"/>
<path d="M354.911 846.598V843.596L365.885 841.195C372.853 839.794 377.382 837.893 379.473 835.492C381.563 833.091 382.608 829.99 382.608 826.188V669.216C382.608 665.214 381.563 662.012 379.473 659.611C377.382 657.21 372.853 655.309 365.885 653.909L354.911 651.508V648.506H485.035V651.508L473.538 654.209C467.615 655.409 463.609 657.21 461.518 659.611C459.428 662.012 458.383 665.314 458.383 669.516V826.488C458.383 830.49 459.428 833.591 461.518 835.793C463.957 837.994 468.486 839.794 475.106 841.195L485.035 843.596V846.598H354.911ZM547.745 846.598V843.596L554.538 842.396C561.506 841.195 565.164 839.194 565.513 836.393C565.861 833.591 563.771 830.39 559.242 826.788L458.905 744.851L591.119 667.415C595.997 664.614 598.61 661.912 598.958 659.311C599.655 656.71 596.345 654.709 589.029 653.308L580.145 651.508V648.506H656.442V651.508L642.855 653.909C635.191 655.309 629.094 657.01 624.565 659.011C620.036 661.012 614.81 663.713 608.887 667.115L515.345 722.04L638.152 824.988C643.378 829.39 648.255 832.991 652.784 835.793C657.662 838.594 664.455 840.795 673.165 842.396L680.481 843.596V846.598H547.745Z" fill="white"/>
<path d="M865.972 198C830.594 198 799.378 193.8 772.324 185.4C745.617 176.8 724.633 164.7 709.372 149.1C694.457 133.3 687 114.7 687 93.3C687 72.5 694.457 54.3 709.372 38.7C724.286 23.1 745.79 11 773.885 2.40001C778.047 5.4 840.328 9.69058 880.562 9.69058C898.945 9.69058 917.999 5.70001 928.405 5.7C944.36 8.09999 958.927 -1.3 973.148 3.29999L975.229 45.3H970.026L940.891 14.1C936.382 9.1 932.22 5.5 928.405 3.29999C924.589 1.1 922.718 6.3 916.821 5.10001C911.272 4.1 905.68 7.59172 900.824 7.19173C896.315 6.59172 888.192 9.69058 880.562 9.69058C859.057 9.69058 839.439 -1.5 822.79 5.10001C806.488 11.7 793.829 22.2 784.811 36.6C775.793 51 771.284 69.9 771.284 93.3C771.284 116.5 775.446 135.4 783.77 150C792.441 164.6 804.581 175.3 820.189 182.1C835.797 188.7 853.833 192 874.297 192C877.418 192 880.367 191.9 883.141 191.7C886.263 191.3 889.211 190.9 891.986 190.5C898.576 189.9 902.912 188.3 904.993 185.7C907.074 183.1 908.114 180 908.114 176.4V117C908.114 109.2 901.177 104.4 887.303 102.6L863.371 99V96H1010.09V99L1002.8 100.2C989.623 102.6 983.033 107.6 983.033 115.2V180.3C964.997 186.1 946.614 190.5 927.884 193.5C909.502 196.5 888.864 198 865.972 198Z" fill="white"/>
<path d="M1024.39 192.6V189.6L1034.79 187.2C1041.73 185.8 1046.24 183.9 1048.32 181.5C1050.75 179.1 1051.96 176 1051.96 172.2V15.3C1051.96 11.3 1050.75 8.1 1048.32 5.7C1046.24 3.29999 1053.22 16.1 1046.29 14.7L1022.93 3.29999L1029.33 5.4L1154.64 8.69104L1160.51 2.19403L1145.04 8.43896C1138.45 9.83895 1136.59 3 1134.16 5.4C1131.73 7.6 1130.52 10.7 1130.52 14.7V87.6H1254.87V14.7C1254.87 10.7 1253.65 7.6 1251.22 5.4C1249.14 3 1289.02 31.5811 1282.08 30.1811L1239.96 8.69104L1227.16 8.19127L1314.08 8.69101L1328.47 4.19308L1350.59 0C1344 1.39999 1339.5 3.29999 1337.07 5.7C1334.64 8.1 1333.43 11.3 1333.43 15.3V172.2C1333.43 176 1334.64 179.1 1337.07 181.5C1339.5 183.9 1344 185.8 1350.59 187.2L1361 189.6V192.6H1228.33V189.6L1237.7 187.8C1244.63 186.2 1249.14 184.3 1251.22 182.1C1253.65 179.7 1254.87 176.5 1254.87 172.5V93.6H1130.52V172.5C1130.52 179.9 1136.24 185 1147.69 187.8L1156.53 189.6V192.6H1024.39Z" fill="white"/>
<path d="M1035.36 417.6V414.6L1046.29 412.2C1053.22 410.8 1057.73 408.9 1059.81 406.5C1061.89 404.1 1062.93 401 1062.93 397.2V240.3C1062.93 236.3 1061.89 233.1 1059.81 230.7C1057.73 228.3 1053.22 226.4 1046.29 225L1035.36 222.6V219.6H1164.91V222.6L1153.46 225.3C1147.57 226.5 1143.58 228.3 1141.5 230.7C1139.41 233.1 1138.37 236.4 1138.37 240.6V397.5C1138.37 401.5 1139.41 404.6 1141.5 406.8C1143.92 409 1148.43 410.8 1155.02 412.2L1164.91 414.6V417.6H1035.36ZM1227.34 417.6V414.6L1234.1 413.4C1241.04 412.2 1244.68 410.2 1245.03 407.4C1245.38 404.6 1243.29 401.4 1238.79 397.8L1138.89 315.9L1270.52 238.5C1275.38 235.7 1277.98 233 1278.33 230.4C1279.02 227.8 1275.72 225.8 1268.44 224.4L1259.6 222.6V219.6H1335.56V222.6L1322.03 225C1314.4 226.4 1308.33 228.1 1303.82 230.1C1299.31 232.1 1294.11 234.8 1288.21 238.2L1195.08 293.1L1317.35 396C1322.55 400.4 1327.4 404 1331.91 406.8C1336.77 409.6 1343.53 411.8 1352.2 413.4L1359.49 414.6V417.6H1227.34Z" fill="white"/>
<path d="M829.929 417C804.611 417 778.833 415.605 752.595 412.816C726.357 410.226 704.492 406.739 687 402.356L690.452 361.713H697.357L718.762 381.138C725.206 386.716 732.111 391.697 739.476 396.08C746.841 400.264 756.968 403.552 769.857 405.943C779.063 407.935 787.81 409.329 796.095 410.126C804.841 410.724 814.508 411.023 825.095 411.023C853.175 411.023 875.27 407.736 891.381 401.161C907.952 394.586 916.238 386.119 916.238 375.759C916.238 365.996 910.714 358.425 899.667 353.046C888.619 347.467 870.897 342.088 846.5 336.908L818.19 331.529C778.603 323.958 747.532 315.291 724.976 305.529C702.881 295.567 691.833 282.418 691.833 266.08C691.833 254.326 698.738 244.165 712.548 235.598C726.817 227.031 746.381 220.456 771.238 215.874C796.556 211.291 826.016 209 859.619 209C884.016 209 907.032 210.395 928.667 213.184C950.762 215.973 969.865 219.759 985.976 224.54L981.833 260.402H974.929L946.619 237.989C938.794 231.015 930.968 226.134 923.143 223.345C915.317 220.356 906.341 218.264 896.214 217.069C890.23 216.272 884.706 215.774 879.643 215.575C874.579 215.176 868.135 214.977 860.31 214.977C836.833 214.977 817.04 217.966 800.929 223.943C784.817 229.72 776.762 237.59 776.762 247.552C776.762 257.713 782.976 265.881 795.405 272.057C807.833 278.034 826.016 283.414 849.952 288.195L881.714 294.172C925.905 302.54 957.667 311.506 977 321.069C996.333 330.433 1006 342.586 1006 357.529C1006 375.061 990.579 389.406 959.738 400.563C929.357 411.521 886.087 417 829.929 417Z" fill="white"/>
<path d="M142.929 854C117.611 854 91.8333 852.605 65.5952 849.816C39.3571 847.226 17.4921 843.739 0 839.356L3.45238 798.713H10.3571L31.7619 818.138C38.2063 823.716 45.1111 828.697 52.4762 833.08C59.8413 837.264 69.9682 840.552 82.8571 842.943C92.0635 844.935 100.81 846.329 109.095 847.126C117.841 847.724 127.508 848.023 138.095 848.023C166.175 848.023 188.27 844.736 204.381 838.161C220.952 831.586 229.238 823.119 229.238 812.759C229.238 802.996 223.714 795.425 212.667 790.046C201.619 784.467 183.897 779.088 159.5 773.908L131.19 768.529C91.6032 760.958 60.5317 752.291 37.9762 742.529C15.8809 732.567 4.83333 719.418 4.83333 703.08C4.83333 691.326 11.7381 681.165 25.5476 672.598C39.8175 664.031 59.381 657.456 84.2381 652.874C109.556 648.291 139.016 646 172.619 646C197.016 646 220.032 647.395 241.667 650.184C263.762 652.973 282.865 656.759 298.976 661.54L294.833 697.402H287.929L259.619 674.989C251.794 668.015 243.968 663.134 236.143 660.345C228.317 657.356 219.341 655.264 209.214 654.069C203.23 653.272 197.706 652.774 192.643 652.575C187.579 652.176 181.135 651.977 173.31 651.977C149.833 651.977 130.04 654.966 113.929 660.943C97.8175 666.72 89.7619 674.59 89.7619 684.552C89.7619 694.713 95.9762 702.881 108.405 709.057C120.833 715.034 139.016 720.414 162.952 725.195L194.714 731.172C238.905 739.54 270.667 748.506 290 758.069C309.333 767.433 319 779.586 319 794.529C319 812.061 303.579 826.406 272.738 837.563C242.357 848.521 199.087 854 142.929 854Z" fill="white"/>
</svg>
