<svg width="31" height="31" viewBox="0 0 31 31" fill="none" xmlns="http://www.w3.org/2000/svg">
<path d="M16.2732 29.953C18.2554 20.812 20.7534 18.2545 29.6815 16.225C29.8952 16.225 30.1002 16.1381 30.2513 15.9833C30.4024 15.8286 30.4873 15.6188 30.4873 15.4C30.4873 15.1812 30.4024 14.9713 30.2513 14.8166C30.1002 14.6619 29.8952 14.575 29.6815 14.575C20.7534 12.5455 18.2554 9.98797 16.2732 0.846973C16.2732 0.628169 16.1883 0.418327 16.0371 0.26361C15.886 0.108892 15.6811 0.0219727 15.4674 0.0219727C15.2537 0.0219727 15.0487 0.108892 14.8976 0.26361C14.7465 0.418327 14.6616 0.628169 14.6616 0.846973C12.6793 9.98797 10.1814 12.5455 1.25322 14.575C1.03951 14.575 0.834555 14.6619 0.68344 14.8166C0.532325 14.9713 0.44743 15.1812 0.44743 15.4C0.44743 15.6188 0.532325 15.8286 0.68344 15.9833C0.834555 16.1381 1.03951 16.225 1.25322 16.225C10.1814 18.2545 12.6793 20.812 14.6616 29.953C14.6616 30.1718 14.7465 30.3816 14.8976 30.5363C15.0487 30.6911 15.2537 30.778 15.4674 30.778C15.6811 30.778 15.886 30.6911 16.0371 30.5363C16.1883 30.3816 16.2732 30.1718 16.2732 29.953Z" fill="#BCB3AA"/>
</svg>
