<svg width="160" height="157" viewBox="0 0 160 157" fill="none" xmlns="http://www.w3.org/2000/svg">
<path d="M57.9406 150.277C57.8502 151.021 58.0461 151.661 58.5282 152.198C59.0048 152.734 59.6997 153.108 60.6131 153.319C61.2552 153.468 61.8284 153.499 62.3327 153.411C62.837 153.324 63.2493 153.142 63.5698 152.867C63.8903 152.591 64.1026 152.241 64.2068 151.816C64.2888 151.461 64.2797 151.136 64.1794 150.838C64.0736 150.54 63.9006 150.266 63.6606 150.018C63.4193 149.776 63.1412 149.554 62.8262 149.353C62.5112 149.152 62.1889 148.969 61.8594 148.805L60.3575 148.038C59.75 147.74 59.1796 147.395 58.6462 147.003C58.1074 146.61 57.6475 146.165 57.2667 145.669C56.8804 145.171 56.6123 144.616 56.4624 144.004C56.3125 143.392 56.3228 142.718 56.4932 141.982C56.7239 140.985 57.1817 140.167 57.8665 139.526C58.5501 138.891 59.4227 138.472 60.4846 138.269C61.5396 138.07 62.748 138.128 64.1097 138.444C65.4326 138.75 66.5338 139.221 67.4132 139.856C68.2871 140.49 68.907 141.263 69.273 142.176C69.6335 143.088 69.7052 144.113 69.488 145.253L66.4574 144.551C66.5502 143.948 66.4816 143.413 66.2516 142.946C66.0215 142.479 65.6715 142.089 65.2016 141.776C64.7261 141.461 64.1673 141.23 63.5252 141.081C62.8554 140.926 62.2456 140.89 61.6957 140.973C61.1391 141.06 60.6752 141.25 60.304 141.543C59.9316 141.842 59.6862 142.234 59.5679 142.72C59.4709 143.164 59.5164 143.559 59.7044 143.906C59.8911 144.258 60.1918 144.585 60.6063 144.885C61.0141 145.189 61.5045 145.489 62.0775 145.785L63.8968 146.731C65.2139 147.415 66.1948 148.217 66.8393 149.136C67.477 150.059 67.6549 151.13 67.373 152.348C67.141 153.349 66.6667 154.164 65.9499 154.791C65.2276 155.417 64.3479 155.829 63.3107 156.026C62.2723 156.229 61.1581 156.193 59.9679 155.917C58.7612 155.638 57.7527 155.183 56.9423 154.552C56.125 153.925 55.5421 153.181 55.1935 152.318C54.8437 151.462 54.7713 150.553 54.9764 149.591L57.9406 150.277Z" fill="white"/>
<path d="M38.6439 140.397L41.5067 141.799C41.3585 142.308 41.3055 142.798 41.3475 143.268C41.3871 143.743 41.5077 144.187 41.7094 144.603C41.9111 145.018 42.1899 145.391 42.5459 145.724C42.8943 146.059 43.3084 146.344 43.7881 146.579C44.6403 146.996 45.5005 147.151 46.3686 147.045C47.2343 146.944 48.0545 146.573 48.8292 145.934C49.6015 145.3 50.2762 144.393 50.8533 143.215C51.4403 142.015 51.7487 140.914 51.7784 139.91C51.8005 138.908 51.5874 138.039 51.1391 137.3C50.6831 136.565 50.0316 135.99 49.1845 135.575C48.715 135.345 48.2461 135.191 47.7779 135.114C47.3021 135.039 46.841 135.044 46.3944 135.129C45.9428 135.212 45.5173 135.377 45.1179 135.624C44.7134 135.869 44.3553 136.2 44.0437 136.617L41.1884 135.2C41.6603 134.507 42.2347 133.922 42.9117 133.443C43.5836 132.963 44.3277 132.612 45.1441 132.392C45.958 132.177 46.8164 132.116 47.7193 132.21C48.6196 132.309 49.5367 132.587 50.4706 133.045C51.8485 133.719 52.9222 134.64 53.6917 135.808C54.4613 136.975 54.8626 138.314 54.8956 139.823C54.9286 141.332 54.5329 142.928 53.7084 144.612C52.8815 146.301 51.8607 147.592 50.6459 148.484C49.4286 149.381 48.1229 149.884 46.7288 149.992C45.3346 150.1 43.9538 149.82 42.5861 149.15C41.7135 148.723 40.962 148.203 40.3318 147.591C39.7016 146.979 39.2092 146.292 38.8547 145.53C38.4976 144.773 38.2977 143.96 38.2548 143.092C38.2044 142.226 38.3341 141.327 38.6439 140.397Z" fill="white"/>
<path d="M44.1697 129.475L33.1537 143.014L28.0766 138.883C27.0364 138.037 26.3108 137.146 25.8997 136.211C25.4842 135.272 25.3611 134.33 25.5304 133.384C25.6917 132.438 26.1238 131.533 26.8266 130.67C27.5331 129.801 28.3314 129.198 29.2215 128.861C30.1037 128.524 31.0434 128.471 32.0407 128.704C33.0344 128.941 34.0513 129.483 35.0914 130.329L38.7076 133.272L37.0509 135.308L33.7653 132.634C33.157 132.14 32.5909 131.818 32.0668 131.67C31.5391 131.526 31.05 131.542 30.5996 131.718C30.1411 131.894 29.7164 132.222 29.3256 132.703C28.9347 133.183 28.696 133.67 28.6094 134.164C28.5192 134.662 28.5963 135.157 28.8407 135.649C29.0815 136.145 29.5082 136.642 30.1208 137.141L32.3685 138.969L41.7171 127.48L44.1697 129.475ZM32.1837 129.919L33.8236 121.057L36.5605 123.284L34.8612 132.098L32.1837 129.919Z" fill="white"/>
<path d="M17.7227 113.65C19.2143 112.505 20.7064 111.803 22.199 111.545C23.6837 111.286 25.0762 111.42 26.3766 111.948C27.6735 112.471 28.7875 113.338 29.7184 114.55C30.6493 115.762 31.2016 117.065 31.3754 118.457C31.5413 119.849 31.3092 121.23 30.6793 122.602C30.0415 123.973 28.979 125.23 27.4919 126.372C26.0003 127.517 24.5122 128.219 23.0275 128.478C21.5349 128.736 20.1401 128.604 18.8432 128.081C17.5428 127.554 16.4271 126.684 15.4962 125.472C14.5653 124.26 14.0147 122.96 13.8444 121.572C13.6706 120.179 13.9026 118.797 14.5404 117.426C15.1703 116.054 16.2311 114.796 17.7227 113.65ZM19.6589 116.172C18.6089 116.978 17.8497 117.822 17.3813 118.705C16.9049 119.587 16.7035 120.458 16.7769 121.318C16.8458 122.182 17.1692 122.991 17.7472 123.743C18.3251 124.496 19.0225 125.017 19.8395 125.306C20.652 125.6 21.5473 125.632 22.5254 125.404C23.4956 125.175 24.5057 124.657 25.5557 123.85C26.6057 123.044 27.3689 122.2 27.8452 121.319C28.3136 120.436 28.5134 119.563 28.4444 118.699C28.371 117.838 28.0453 117.031 27.4674 116.279C26.8895 115.526 26.1943 115.003 25.3818 114.71C24.5649 114.421 23.6713 114.391 22.7011 114.62C21.7229 114.848 20.7089 115.365 19.6589 116.172Z" fill="white"/>
<path d="M25.3043 107.908L9.45556 115.221L8.13081 112.35L21.5728 106.147L18.352 99.1671L20.7587 98.0566L25.3043 107.908Z" fill="white"/>
<path d="M20.705 96.662L3.73277 100.737L2.99462 97.6622L17.3896 94.2062L15.5949 86.7311L18.1723 86.1124L20.705 96.662Z" fill="white"/>
<path d="M18.6788 71.3376L18.053 77.2192L0.696411 75.3726L1.33479 69.3724C1.51812 67.6492 2.02308 66.2059 2.84967 65.0425C3.6712 63.8728 4.76435 63.0235 6.12912 62.4944C7.49388 61.9654 9.07743 61.7967 10.8798 61.9885C12.6877 62.1808 14.2057 62.6823 15.4337 63.4929C16.6622 64.2979 17.5569 65.3673 18.1178 66.7011C18.6793 68.0294 18.8663 69.5749 18.6788 71.3376ZM15.6671 73.7856L15.9421 71.2008C16.0707 69.9917 15.9577 68.9597 15.6029 68.1049C15.2425 67.2495 14.6433 66.5715 13.8052 66.0709C12.9614 65.5697 11.8757 65.2485 10.5479 65.1073C9.22021 64.966 8.09684 65.0522 7.17782 65.3658C6.25315 65.6788 5.53091 66.2105 5.01111 66.9609C4.48626 67.705 4.16132 68.6646 4.03629 69.8398L3.75137 72.5179L15.6671 73.7856Z" fill="white"/>
<path d="M17.3131 45.0493C19.0802 45.6929 20.4732 46.5751 21.4921 47.696C22.5075 48.8096 23.1418 50.0565 23.395 51.4367C23.6502 52.8116 23.5162 54.2171 22.9932 55.6532C22.4702 57.0893 21.6679 58.2545 20.5864 59.1486C19.5015 60.0354 18.2112 60.5814 16.7155 60.7864C15.2164 60.9843 13.586 60.7623 11.8242 60.1207C10.057 59.4771 8.66573 58.5985 7.65027 57.4849C6.63142 56.3641 5.99442 55.1162 5.73928 53.7413C5.48608 52.3611 5.62099 50.953 6.14403 49.5168C6.66706 48.0807 7.46835 46.9182 8.5479 46.0295C9.62939 45.1353 10.9197 44.5894 12.4188 44.3916C13.9145 44.1865 15.5459 44.4057 17.3131 45.0493ZM16.2252 48.0364C14.9813 47.5833 13.8612 47.3961 12.8651 47.4748C11.8656 47.5461 11.0225 47.8438 10.3358 48.3677C9.64381 48.8897 9.13545 49.5965 8.81075 50.488C8.48604 51.3796 8.42081 52.2478 8.61505 53.0925C8.80395 53.9353 9.2572 54.7081 9.97481 55.4109C10.689 56.1064 11.6681 56.6806 12.912 57.1337C14.156 57.5867 15.2777 57.7775 16.2772 57.7062C17.2734 57.6275 18.1174 57.3272 18.8094 56.8053C19.4961 56.2813 20.0018 55.5736 20.3265 54.682C20.6512 53.7904 20.7191 52.9232 20.5302 52.0804C20.336 51.2357 19.8817 50.4656 19.1675 49.7701C18.4499 49.0673 17.4691 48.4894 16.2252 48.0364Z" fill="white"/>
<path d="M27.9111 45.5844L10.8651 39.3907L12.8509 36.6302L25.0999 41.5674L25.1945 41.4359L16.7428 31.2198L18.5494 28.7083L30.9348 33.4707L31.0243 33.3461L22.4413 23.298L24.4271 20.5374L35.7198 34.729L33.8983 37.2613L21.9157 32.9461L21.8361 33.0568L29.7327 43.0522L27.9111 45.5844Z" fill="white"/>
<path d="M37.7215 11.2847L48.6704 24.8782L46.48 26.6424L32.617 22.5422L32.5042 22.6331L39.962 31.8923L37.4995 33.8757L26.5506 20.2822L28.7543 18.5073L42.616 22.6195L42.7355 22.5233L35.2723 13.2574L37.7215 11.2847Z" fill="white"/>
<path d="M63.52 14.6267C63.0385 14.8149 62.5595 14.807 62.0831 14.6028C61.6068 14.3986 61.2761 14.052 61.091 13.5631C60.8995 13.0889 60.9096 12.6152 61.1212 12.1421C61.3327 11.6689 61.6793 11.3382 62.1608 11.15C62.6265 10.9679 63.0975 10.979 63.5739 11.1832C64.0556 11.3853 64.3921 11.7235 64.5836 12.1977C64.7045 12.5226 64.7347 12.8494 64.6741 13.1781C64.6188 13.5047 64.4898 13.7992 64.2873 14.0613C64.088 14.3162 63.8322 14.5046 63.52 14.6267Z" fill="white"/>
<path d="M93.2 5.39141C93.1937 4.64288 92.9169 4.0333 92.3694 3.56266C91.8276 3.09258 91.0902 2.81164 90.1572 2.71984C89.5013 2.65531 88.9289 2.69891 88.4401 2.85064C87.9513 3.00237 87.5659 3.23563 87.2837 3.55043C87.0015 3.86522 86.8362 4.24004 86.7877 4.67488C86.7521 5.03677 86.8032 5.35866 86.941 5.64056C87.0845 5.92301 87.2913 6.17172 87.5613 6.38669C87.8319 6.59601 88.1363 6.78011 88.4747 6.93901C88.813 7.0979 89.1561 7.23728 89.504 7.35714L91.0924 7.92449C91.7333 8.1417 92.3435 8.41012 92.923 8.72976C93.5081 9.04995 94.0215 9.4316 94.4631 9.8747C94.9105 10.3184 95.248 10.834 95.4756 11.4216C95.7033 12.0092 95.7801 12.6791 95.7061 13.4311C95.606 14.4489 95.2577 15.3196 94.6613 16.0431C94.0654 16.7609 93.2541 17.2891 92.2274 17.6277C91.2068 17.9612 90.0011 18.0595 88.6101 17.9227C87.2586 17.7897 86.1059 17.465 85.1519 16.9487C84.2035 16.4329 83.4889 15.746 83.0081 14.888C82.533 14.0305 82.3295 13.0228 82.3978 11.8648L85.4937 12.1694C85.4794 12.7789 85.6164 13.3005 85.9049 13.7342C86.1934 14.168 86.5908 14.5097 87.0972 14.7593C87.6093 15.0095 88.1932 15.1669 88.8492 15.2314C89.5334 15.2987 90.1428 15.2559 90.6773 15.103C91.2181 14.945 91.6536 14.6966 91.9838 14.358C92.3146 14.0138 92.5073 13.5931 92.5619 13.0961C92.6007 12.6431 92.5046 12.2569 92.2734 11.9372C92.0428 11.612 91.7025 11.3273 91.2527 11.0832C90.809 10.834 90.284 10.5997 89.6776 10.3801L87.7514 9.6768C86.357 9.1685 85.2809 8.50027 84.5231 7.67209C83.7715 6.83882 83.4569 5.80018 83.5793 4.55619C83.68 3.53272 84.0453 2.66374 84.6751 1.94925C85.3105 1.23531 86.1298 0.713584 87.1328 0.384071C88.1363 0.0489045 89.2459 -0.058873 90.4617 0.0607385C91.6943 0.182019 92.7532 0.50315 93.6383 1.02413C94.5295 1.54002 95.2037 2.20296 95.6606 3.01296C96.1182 3.8173 96.3073 4.70943 96.228 5.68933L93.2 5.39141Z" fill="white"/>
<path d="M113.611 12.6981L110.591 11.6778C110.672 11.1535 110.661 10.6611 110.559 10.2007C110.458 9.73497 110.281 9.30931 110.028 8.92378C109.774 8.53824 109.45 8.20362 109.054 7.91992C108.665 7.63265 108.218 7.40354 107.712 7.23259C106.813 6.92888 105.94 6.8858 105.092 7.10336C104.247 7.31553 103.481 7.78857 102.796 8.52245C102.112 9.25095 101.56 10.2369 101.14 11.4804C100.712 12.7454 100.549 13.8776 100.649 14.877C100.756 15.8728 101.08 16.7078 101.62 17.382C102.167 18.0526 102.887 18.5389 103.781 18.8408C104.276 19.0081 104.761 19.0999 105.235 19.1162C105.716 19.1289 106.173 19.0643 106.605 18.9223C107.042 18.7822 107.443 18.5637 107.807 18.2669C108.176 17.9719 108.489 17.5977 108.744 17.1441L111.758 18.1805C111.38 18.9283 110.886 19.583 110.276 20.1447C109.672 20.7082 108.979 21.1519 108.198 21.4757C107.419 21.7942 106.575 21.965 105.668 21.9883C104.762 22.0062 103.817 21.8487 102.832 21.5159C101.378 21.0249 100.195 20.2501 99.281 19.1917C98.3672 18.1333 97.7965 16.858 97.569 15.3657C97.3415 13.8735 97.5278 12.2392 98.1279 10.4629C98.7299 8.68111 99.5756 7.2696 100.665 6.22831C101.756 5.18164 102.986 4.51465 104.355 4.22734C105.723 3.94003 107.129 4.04007 108.571 4.52746C109.492 4.83845 110.304 5.25681 111.008 5.78253C111.712 6.30825 112.289 6.92598 112.739 7.63574C113.191 8.34011 113.494 9.12024 113.649 9.97612C113.81 10.8284 113.798 11.7358 113.611 12.6981Z" fill="white"/>
<path d="M109.541 24.2421L118.717 9.39426L124.285 12.8353C125.426 13.5403 126.26 14.3299 126.788 15.2041C127.322 16.0814 127.565 17.0001 127.52 17.9604C127.482 18.9188 127.17 19.8717 126.585 20.819C125.996 21.7711 125.282 22.4722 124.443 22.9221C123.612 23.3702 122.687 23.5432 121.668 23.4411C120.652 23.3342 119.574 22.9283 118.433 22.2233L114.467 19.7725L115.847 17.5395L119.45 19.7663C120.117 20.1785 120.72 20.4242 121.259 20.5034C121.801 20.5778 122.284 20.4989 122.708 20.2667C123.14 20.0326 123.519 19.6522 123.844 19.1253C124.17 18.5985 124.344 18.0848 124.366 17.5842C124.391 17.0787 124.251 16.5979 123.945 16.1417C123.642 15.6807 123.155 15.2426 122.483 14.8274L120.018 13.304L112.231 25.9044L109.541 24.2421ZM121.369 22.2546L120.887 31.2542L117.885 29.3992L118.433 20.44L121.369 22.2546Z" fill="white"/>
<path d="M137.809 36.5208C136.478 37.8492 135.089 38.7376 133.642 39.186C132.203 39.6345 130.805 39.6812 129.447 39.3261C128.094 38.9751 126.877 38.2587 125.798 37.1768C124.718 36.0949 124.002 34.8747 123.65 33.5164C123.306 32.158 123.358 30.7579 123.805 29.3161C124.261 27.8742 125.152 26.4911 126.48 25.1667C127.811 23.8383 129.196 22.9499 130.635 22.5015C132.082 22.0531 133.482 22.0044 134.835 22.3554C136.193 22.7104 137.412 23.4288 138.491 24.5108C139.571 25.5927 140.285 26.8108 140.633 28.1651C140.985 29.5235 140.933 30.9236 140.477 32.3654C140.03 33.8073 139.141 35.1924 137.809 36.5208ZM135.564 34.2705C136.501 33.3354 137.145 32.4 137.495 31.4642C137.854 30.5285 137.941 29.6387 137.757 28.7948C137.577 27.9469 137.152 27.1871 136.482 26.5154C135.812 25.8437 135.053 25.417 134.206 25.2353C133.362 25.0496 132.47 25.133 131.53 25.4856C130.597 25.8381 129.662 26.4819 128.725 27.417C127.788 28.3521 127.14 29.2876 126.782 30.2233C126.431 31.159 126.346 32.0508 126.526 32.8988C126.709 33.7427 127.137 34.5005 127.807 35.1721C128.477 35.8438 129.234 36.2725 130.077 36.4582C130.925 36.6399 131.815 36.5545 132.747 36.202C133.688 35.8494 134.627 35.2056 135.564 34.2705Z" fill="white"/>
<path d="M131.032 43.1937L145.805 33.8962L147.489 36.5723L134.96 44.4579L139.055 50.964L136.811 52.3759L131.032 43.1937Z" fill="white"/>
<path d="M137.045 53.7519L153.349 47.5204L154.478 50.474L140.649 55.7592L143.394 62.9401L140.918 63.8863L137.045 53.7519Z" fill="white"/>
<path d="M142.323 78.6028L142.184 72.6897L159.634 72.2804L159.776 78.3129C159.816 80.0453 159.502 81.5418 158.832 82.8021C158.169 84.068 157.194 85.0514 155.909 85.7522C154.624 86.4529 153.076 86.8246 151.264 86.8671C149.446 86.9097 147.876 86.6084 146.554 85.9631C145.231 85.3234 144.206 84.3785 143.478 83.1281C142.749 81.8835 142.365 80.3751 142.323 78.6028ZM144.993 75.7866L145.054 78.3853C145.083 79.6009 145.328 80.6096 145.79 81.4115C146.258 82.2133 146.94 82.8082 147.836 83.1964C148.737 83.5845 149.855 83.7629 151.19 83.7316C152.525 83.7003 153.628 83.4698 154.499 83.0402C155.375 82.6104 156.023 81.9899 156.441 81.1788C156.866 80.3731 157.064 79.3796 157.036 78.1981L156.973 75.5056L144.993 75.7866Z" fill="white"/>
<path d="M147.071 104.495C145.235 104.085 143.74 103.39 142.585 102.41C141.434 101.437 140.644 100.282 140.215 98.9461C139.785 97.6156 139.736 96.2046 140.069 94.713C140.402 93.2214 141.048 91.9624 142.005 90.9362C142.966 89.9167 144.175 89.2088 145.632 88.8124C147.093 88.4227 148.738 88.4323 150.568 88.8412C152.404 89.2512 153.897 89.9429 155.047 90.9161C156.202 91.8961 156.995 93.0513 157.426 94.3817C157.855 95.7177 157.903 97.1315 157.569 98.6231C157.236 100.115 156.592 101.371 155.636 102.392C154.679 103.418 153.47 104.126 152.009 104.515C150.552 104.912 148.906 104.905 147.071 104.495ZM147.764 101.392C149.056 101.681 150.191 101.722 151.168 101.516C152.15 101.316 152.948 100.912 153.561 100.304C154.18 99.6968 154.593 98.9303 154.8 98.0043C155.007 97.0782 154.959 96.2089 154.658 95.3963C154.361 94.585 153.812 93.8771 153.01 93.2729C152.212 92.6754 151.167 92.2323 149.875 91.9436C148.583 91.655 147.446 91.6105 146.464 91.8103C145.486 92.0168 144.688 92.4236 144.069 93.0305C143.456 93.6387 143.046 94.4058 142.839 95.3318C142.632 96.2579 142.677 97.1266 142.973 97.9379C143.274 98.7505 143.824 99.4556 144.622 100.053C145.425 100.657 146.472 101.104 147.764 101.392Z" fill="white"/>
<path d="M136.492 105.332L154.195 109.274L152.582 112.268L139.798 108.953L139.721 109.095L149.421 118.135L147.954 120.859L135.057 117.735L134.985 117.87L144.793 126.726L143.18 129.72L130.15 117.105L131.629 114.359L144.069 117.091L144.133 116.971L135.013 108.079L136.492 105.332Z" fill="white"/>
<path d="M131.191 140.611L118.579 128.545L120.524 126.513L134.8 128.789L134.9 128.685L126.309 120.465L128.495 118.181L141.107 130.247L139.151 132.292L124.875 130.003L124.769 130.114L133.365 138.339L131.191 140.611Z" fill="white"/>
<path d="M99.3883 143.692C99.8814 143.537 100.359 143.577 100.82 143.813C101.282 144.049 101.588 144.417 101.74 144.917C101.899 145.403 101.857 145.875 101.614 146.333C101.371 146.791 101.003 147.098 100.51 147.253C100.033 147.403 99.5637 147.36 99.1022 147.124C98.6353 146.89 98.3223 146.53 98.1632 146.044C98.0645 145.712 98.0565 145.384 98.1391 145.06C98.2164 144.738 98.3648 144.453 98.5846 144.205C98.8006 143.964 99.0685 143.793 99.3883 143.692Z" fill="white"/>
<path d="M65.3262 41.5356C48.9622 67.3605 59.1949 109.137 90.0748 118.61M65.3262 42.0356C97.4219 44.8885 113.723 82.5114 106.338 110.832M64.9726 41.5356L98.9137 115.782M47.2949 58.5062C64.0418 67.3592 85.0298 55.6818 91.8427 39.4144M42.6987 76.5374C67.301 84.4297 97.148 72.1293 107.753 48.2531M45.8807 96.3364C73.5379 103.166 107.388 90.7991 118.359 63.1024M121.53 78.3443C121.663 89.1538 117.617 99.5738 110.279 107.32C102.941 115.066 92.9091 119.506 82.3831 119.666C71.8571 119.827 61.6959 115.695 54.1271 108.176C46.5584 100.658 42.1997 90.3659 42.0067 79.5573C41.8137 68.7488 45.8021 58.3055 53.0976 50.517C60.393 42.7284 70.4002 38.2303 80.9251 38.0087C91.4499 37.787 101.634 41.86 109.244 49.3346C116.854 56.8093 121.269 67.0757 121.521 77.883M56.8409 110.832C81.4193 119.485 112.28 106.681 121.541 81.8406M121.093 84.8629C121.465 82.3167 121.601 79.7403 121.501 77.1681" stroke="white" stroke-width="4"/>
</svg>
